<svg xmlns="http://www.w3.org/2000/svg" viewBox="0 0 512 512">
  <!-- Store Body -->
  <path d="M120 220 L392 220 L392 400 Q392 430 362 430 L150 430 Q120 430 120 400 Z" fill="none" stroke="#22c55e" stroke-width="32" stroke-linejoin="round"/>
  <!-- Door -->
  <path d="M210 430 L210 360 Q210 320 256 320 Q302 320 302 360 L302 430" fill="none" stroke="#22c55e" stroke-width="32" stroke-linecap="round"/>
  <!-- Roof/Awning -->
  <path d="M80 220 L432 220 L380 110 L132 110 Z" fill="#22c55e" />
  <!-- Wavy Bottom of Awning -->
  <path d="M80 220 Q80 260 124 260 Q168 260 168 220 Q168 260 212 260 Q256 260 256 220 Q256 260 300 260 Q344 260 344 220 Q344 260 388 260 Q432 260 432 220" fill="#22c55e" />
</svg>
